<svg width="40" height="40" viewBox="0 0 40 40" fill="none" xmlns="http://www.w3.org/2000/svg">
  <!-- 3D Isometric G Logo - Blue gradient design -->
  
  <!-- Top face (lighter blue) -->
  <path d="M20 8 L32 12 L28 20 L20 24 L12 20 L16 12 Z" fill="#60A5FA" opacity="0.95"/>
  
  <!-- Left face (medium blue) -->
  <path d="M12 20 L16 12 L20 8 L20 24 L16 28 L12 24 Z" fill="#3B82F6" opacity="0.85"/>
  
  <!-- Right face (darker blue) -->
  <path d="M20 24 L28 20 L32 12 L32 28 L28 32 L20 28 Z" fill="#2563EB" opacity="0.75"/>
  
  <!-- Front face - G letter shape (darkest blue) -->
  <path d="M20 10 C24.418 10 28 12.582 28 17 C28 19.209 26.209 21 24 21 L20 21 L20 25 C24.418 25 28 22.418 28 18 C28 16.791 26.209 15 24 15 L20 15 L20 19 L22 19 C23.105 19 24 18.105 24 17 C24 15.895 23.105 15 22 15 L20 15 C18.895 15 18 15.895 18 17 L18 23 C18 24.105 18.895 25 20 25 L24 25 C25.105 25 26 24.105 26 23 C26 21.895 25.105 21 24 21 L20 21 C18.895 21 18 21.895 18 23 L14 23 C14 19.582 16.582 17 20 17 L24 17 C26.209 17 28 15.209 28 13 C28 10.791 26.209 9 24 9 L20 9 C16.582 9 14 11.582 14 15 L18 15 C18 13.895 18.895 13 20 13 L24 13 C25.105 13 26 13.895 26 15 C26 16.105 25.105 17 24 17 L20 17 C18.895 17 18 16.105 18 15 L18 13 C18 11.895 18.895 11 20 11 L24 11 C25.105 11 26 11.895 26 13 C26 14.105 25.105 15 24 15 L20 15 Z" fill="#1E40AF" opacity="0.9"/>
  
  <!-- Highlight on top face for 3D effect -->
  <path d="M20 8 L28 11 L24 18 L20 22 L16 18 L18 11 Z" fill="#93C5FD" opacity="0.4"/>
</svg>
