<svg width="32" height="32" viewBox="0 0 32 32" fill="none" xmlns="http://www.w3.org/2000/svg">
  <!-- 3D Isometric G Logo - Fully centered and fitted with padding -->
  
  <!-- Top face (lighter blue) - centered with padding -->
  <path d="M16 7 L23 9 L20.5 15 L16 17 L11.5 15 L14 9 Z" fill="#60A5FA" opacity="0.95"/>
  
  <!-- Left face (medium blue) -->
  <path d="M11.5 15 L14 9 L16 7 L16 17 L14 19 L11.5 17 Z" fill="#3B82F6" opacity="0.85"/>
  
  <!-- Right face (darker blue) -->
  <path d="M16 17 L20.5 15 L23 9 L23 19 L20.5 21 L16 19 Z" fill="#2563EB" opacity="0.75"/>
  
  <!-- Front face - G letter (centered, fully visible within bounds) -->
  <path d="M16 10 C17.657 10 19 11.343 19 13 C19 13.552 18.552 14 18 14 L16 14 L16 16 C17.657 16 19 14.657 19 13 C19 12.448 18.552 12 18 12 L16 12 L16 14.5 L16.5 14.5 C16.776 14.5 17 14.724 17 15 C17 15.276 16.776 15.5 16.5 15.5 L16 15.5 C15.724 15.5 15.5 15.276 15.5 15 L15.5 17 C15.5 17.276 15.724 17.5 16 17.5 L18 17.5 C18.276 17.5 18.5 17.276 18.5 17 C18.5 16.724 18.276 16.5 18 16.5 L16 16.5 C15.724 16.5 15.5 16.724 15.5 17 L13 17 C13 15.343 14.343 14 16 14 L18 14 C18.552 14 19 13.552 19 13 C19 12.448 18.552 12 18 12 L16 12 C14.343 12 13 13.343 13 15 L15.5 15 C15.5 14.448 15.948 14 16.5 14 L18 14 C18.276 14 18.5 14.224 18.5 14.5 C18.5 14.776 18.276 15 18 15 L16 15 Z" fill="#1E40AF" opacity="0.9"/>
  
  <!-- Subtle highlight on top -->
  <path d="M16 7 L21.5 8.5 L19.25 14.25 L16 16 L12.75 14.25 L14.5 8.5 Z" fill="#93C5FD" opacity="0.2"/>
</svg>
