<svg width="32" height="32" viewBox="0 0 32 32" fill="none" xmlns="http://www.w3.org/2000/svg">
  <!-- 3D Isometric G Logo - Clean, properly fitted design -->
  
  <!-- Top face (lighter blue) -->
  <path d="M16 6 L26 9 L22 16 L16 19 L10 16 L13 9 Z" fill="#60A5FA" opacity="0.95"/>
  
  <!-- Left face (medium blue) -->
  <path d="M10 16 L13 9 L16 6 L16 19 L13 22 L10 19 Z" fill="#3B82F6" opacity="0.85"/>
  
  <!-- Right face (darker blue) -->
  <path d="M16 19 L22 16 L26 9 L26 22 L22 25 L16 22 Z" fill="#2563EB" opacity="0.75"/>
  
  <!-- Front face - Simplified G letter (centered, fits in box) -->
  <path d="M16 9 C18.761 9 21 11.239 21 14 C21 15.657 19.657 17 18 17 L16 17 L16 19 C18.761 19 21 16.761 21 14 C21 12.343 19.657 11 18 11 L16 11 L16 15 L17.5 15 C18.328 15 19 14.328 19 13.5 C19 12.672 18.328 12 17.5 12 L16 12 C15.172 12 14.5 12.672 14.5 13.5 L14.5 18.5 C14.5 19.328 15.172 20 16 20 L18 20 C18.828 20 19.5 19.328 19.5 18.5 C19.5 17.672 18.828 17 18 17 L16 17 C15.172 17 14.5 17.672 14.5 18.5 L11 18.5 C11 15.739 13.239 13.5 16 13.5 L18 13.5 C19.657 13.5 21 12.157 21 10.5 C21 8.843 19.657 7.5 18 7.5 L16 7.5 C13.239 7.5 11 9.739 11 12.5 L14.5 12.5 C14.5 11.672 15.172 11 16 11 L18 11 C18.828 11 19.5 11.672 19.5 12.5 C19.5 13.328 18.828 14 18 14 L16 14 Z" fill="#1E40AF" opacity="0.9"/>
  
  <!-- Subtle highlight on top face -->
  <path d="M16 6 L22 8.5 L19 14.5 L16 17.5 L13 14.5 L14.5 8.5 Z" fill="#93C5FD" opacity="0.25"/>
</svg>
